<?xml version="1.0" encoding="UTF-8" standalone="no"?>
<svg
   xmlns:dc="http://purl.org/dc/elements/1.1/"
   xmlns:cc="http://creativecommons.org/ns#"
   xmlns:rdf="http://www.w3.org/1999/02/22-rdf-syntax-ns#"
   xmlns:svg="http://www.w3.org/2000/svg"
   xmlns="http://www.w3.org/2000/svg"
   xmlns:sodipodi="http://sodipodi.sourceforge.net/DTD/sodipodi-0.dtd"
   xmlns:inkscape="http://www.inkscape.org/namespaces/inkscape"
   width="16"
   height="16"
   viewBox="0 0 16 16"
   version="1.1"
   id="svg8"
   inkscape:version="0.92.4 (5da689c313, 2019-01-14)"
   sodipodi:docname="icon-google-scholar.svg">
  <title
     id="title833">Google Scholar</title>
  <defs
     id="defs2" />
  <sodipodi:namedview
     id="base"
     pagecolor="#ffffff"
     bordercolor="#666666"
     borderopacity="1.0"
     inkscape:pageopacity="0.0"
     inkscape:pageshadow="2"
     inkscape:zoom="16.117188"
     inkscape:cx="1.3772285"
     inkscape:cy="11.788231"
     inkscape:document-units="px"
     inkscape:current-layer="layer6"
     inkscape:document-rotation="0"
     showgrid="true"
     units="px"
     showguides="true"
     inkscape:guide-bbox="true"
     inkscape:window-width="2560"
     inkscape:window-height="1057"
     inkscape:window-x="1912"
     inkscape:window-y="-8"
     inkscape:window-maximized="1">
    <inkscape:grid
       type="xygrid"
       id="grid10"
       empspacing="4" />
    <sodipodi:guide
       position="384.00001,64"
       orientation="0,1"
       id="guide23"
       inkscape:label="baseline"
       inkscape:locked="false"
       inkscape:color="rgb(0,0,255)" />
  </sodipodi:namedview>
  <metadata
     id="metadata5">
    <rdf:RDF>
      <cc:Work
         rdf:about="">
        <dc:format>image/svg+xml</dc:format>
        <dc:type
           rdf:resource="http://purl.org/dc/dcmitype/StillImage" />
        <dc:title>Google Scholar</dc:title>
        <cc:license
           rdf:resource="http://scripts.sil.org/OFL" />
        <dc:subject>
          <rdf:Bag>
            <rdf:li>Google Scholar</rdf:li>
          </rdf:Bag>
        </dc:subject>
      </cc:Work>
      <cc:License
         rdf:about="http://scripts.sil.org/OFL">
        <cc:permits
           rdf:resource="http://scripts.sil.org/pub/OFL/Reproduction" />
        <cc:permits
           rdf:resource="http://scripts.sil.org/pub/OFL/Distribution" />
        <cc:permits
           rdf:resource="http://scripts.sil.org/pub/OFL/Embedding" />
        <cc:permits
           rdf:resource="http://scripts.sil.org/pub/OFL/DerivativeWorks" />
        <cc:requires
           rdf:resource="http://scripts.sil.org/pub/OFL/Notice" />
        <cc:requires
           rdf:resource="http://scripts.sil.org/pub/OFL/Attribution" />
        <cc:requires
           rdf:resource="http://scripts.sil.org/pub/OFL/ShareAlike" />
        <cc:requires
           rdf:resource="http://scripts.sil.org/pub/OFL/DerivativeRenaming" />
        <cc:requires
           rdf:resource="http://scripts.sil.org/pub/OFL/BundlingWhenSelling" />
      </cc:License>
    </rdf:RDF>
  </metadata>
  <g
     inkscape:groupmode="layer"
     id="layer6"
     inkscape:label="icon"
     transform="translate(0,-496)">
    <path
       style="stroke-width:0.00262955"
       d="m 14.057852,497.99996 v -1.1053 l 0.802214,-0.62628 H 6.1787737 l -5.24218734,4.55693 H 4.4131657 c -0.00628,0.0862 -0.00896,0.16424 -0.00896,0.25268 0,0.84604 0.2930103,1.54584 0.8796177,2.10491 0.5866061,0.55998 1.3090008,0.83805 2.1643956,0.83805 0.1998216,0 0.3957531,-0.015 0.5860219,-0.0416 -0.1179998,0.26386 -0.1775531,0.50828 -0.1775531,0.73635 0,0.40082 0.1826129,0.82922 0.5465995,1.28427 -1.5924075,0.10841 -2.7624407,0.39503 -3.508275,0.85896 -0.4274313,0.26378 -0.7711734,0.59681 -1.0305336,0.99566 -0.2593789,0.40179 -0.3887389,0.83267 -0.3887389,1.29725 0,0.3916 0.083711,0.74422 0.2524182,1.05781 0.1687102,0.31359 0.3887389,0.57108 0.6620741,0.77051 0.2726775,0.20164 0.5872611,0.36938 0.9424034,0.50608 0.3545047,0.13572 0.7064868,0.2321 1.0577577,0.28666 0.350152,0.0545 0.6982975,0.0811 1.0433362,0.0811 0.5466704,0 1.0939811,-0.0704 1.6457112,-0.21053 0.5504375,-0.14144 1.0666534,-0.35074 1.5492734,-0.62882 0.481343,-0.27619 0.873262,-0.65291 1.173872,-1.12502 0.299951,-0.47406 0.450303,-1.00677 0.450303,-1.59656 0,-0.44711 -0.0913,-0.8539 -0.273974,-1.22334 -0.181374,-0.36822 -0.403356,-0.67137 -0.667777,-0.90688 -0.263852,-0.23594 -0.527634,-0.45278 -0.792074,-0.64811 -0.263852,-0.19665 -0.487058,-0.39575 -0.6684312,-0.60122 -0.1820288,-0.20482 -0.2733352,-0.40807 -0.2733352,-0.60816 0,-0.19975 0.070396,-0.39256 0.2117018,-0.57901 0.1402094,-0.18709 0.3114596,-0.36724 0.5117966,-0.54005 0.200403,-0.17247 0.400811,-0.36398 0.600561,-0.57362 0.19975,-0.20892 0.371,-0.48005 0.511797,-0.8121 0.141436,-0.33196 0.211185,-0.70803 0.211185,-1.12657 0,-0.54602 -0.103388,-0.99281 -0.306328,-1.35212 -0.0241,-0.0414 -0.04942,-0.0732 -0.07611,-0.12271 l 2.30974,-1.89432 v 0.6948 c -0.300095,0.0377 -0.268862,0.21698 -0.268862,0.43165 v 5.22231 c 0,0.24183 0.19787,0.43972 0.43972,0.43972 H 13.8844 c 0.241833,0 0.439719,-0.19788 0.439719,-0.43972 v -5.22231 c 0,-0.21415 0.03155,-0.3932 -0.266321,-0.43145 z m -4.3574901,9.02987 c 0.046307,0.0305 0.1503331,0.11283 0.3132721,0.24509 0.16436,0.13168 0.275874,0.23118 0.335483,0.30093 0.05839,0.0675 0.145272,0.16905 0.258795,0.30633 0.114163,0.13696 0.191508,0.25587 0.232102,0.35451 0.0406,0.10053 0.08183,0.22164 0.123641,0.36307 0.04001,0.13982 0.06026,0.28314 0.06026,0.42868 0,0.69194 -0.266393,1.20463 -0.797793,1.53662 -0.5327132,0.33203 -1.1675645,0.49816 -1.9050892,0.49816 -0.3728817,0 -0.7388214,-0.0444 -1.0984019,-0.12967 -0.3589255,-0.086 -0.7026501,-0.21659 -1.030535,-0.38972 -0.3278848,-0.17281 -0.5916672,-0.41413 -0.7914861,-0.72233 -0.2004072,-0.31009 -0.30061,-0.66623 -0.30061,-1.06541 0,-0.41887 0.1135214,-0.78293 0.341841,-1.09205 0.2270243,-0.3095 0.5251131,-0.54354 0.8942304,-0.70278 0.3678219,-0.16015 0.7407036,-0.27366 1.1186625,-0.34088 0.3779615,-0.0691 0.7629173,-0.10373 1.1542469,-0.10373 0.181371,0 0.3220991,0.0107 0.422302,0.0282 0.018448,0.009 0.1230529,0.0841 0.313926,0.2258 0.1909265,0.14054 0.3095078,0.2271 0.3551623,0.25912 z m -0.136302,-4.08221 c -0.3006127,0.35957 -0.7198026,0.53933 -1.2563347,0.53933 -0.4813407,0 -0.905009,-0.19339 -1.2689942,-0.58088 -0.365282,-0.38652 -0.6259563,-0.82507 -0.7851297,-1.31628 -0.159815,-0.49147 -0.2397065,-0.97346 -0.2397065,-1.44687 0,-0.55581 0.1459323,-1.02898 0.4375724,-1.41959 0.2917136,-0.39166 0.7102498,-0.58791 1.2556943,-0.58791 0.4819811,0 0.9081184,0.2045 1.2759564,0.61518 0.3691159,0.40932 0.633556,0.86911 0.7921438,1.37869 0.1591761,0.50893 0.2383903,0.9956 0.2383903,1.4605 0,0.54576 -0.1502788,0.99886 -0.4495747,1.35783 z"
       id="path2"
       inkscape:connector-curvature="0" />
  </g>
</svg>
